# xmcd CD database file
#
# Track frame offsets:
#	150
#	21807
#	39082
#	58807
#	74882
#	92182
#	110087
#	129507
#	145690
#	169207
#	185427
#	207457
#	230070
#
# Disc length: 3342 seconds
#
# Revision: 0
# Processed by: cddbd v1.4PL0 Copyright (c) Steve Scherf et al.
# Submitted via: CDex 1.50
#
DISCID=c50d0c0d
DTITLE=Burton Gaar - Mighty Long Road
DYEAR=2000
DGENRE=Blues
TTITLE0=Bad motor scooter
TTITLE1=Homewrecker
TTITLE2=Mighty long road
TTITLE3=Leave it alone
TTITLE4=Somebody broke my lock
TTITLE5=Willingly
TTITLE6=Low down blues
TTITLE7=Big mama Gumbeaux
TTITLE8=Truth is
TTITLE9=I'm down
TTITLE10=Soft place to lay
TTITLE11=One night lying
TTITLE12=I'm gonna be the one
EXTD=YEAR: 2000
EXTT0=
EXTT1=
EXTT2=
EXTT3=
EXTT4=
EXTT5=
EXTT6=
EXTT7=
EXTT8=
EXTT9=
EXTT10=
EXTT11=
EXTT12=
PLAYORDER=
